<mxfile host="app.diagrams.net" agent="Mozilla/5.0 (Windows NT 10.0; Win64; x64) AppleWebKit/537.36 (KHTML, like Gecko) Chrome/136.0.0.0 Safari/537.36" version="27.0.9">
  <diagram name="Page-1" id="wIgtUZmJHa7CB0DvbXGk">
    <mxGraphModel dx="1830" dy="753" grid="1" gridSize="10" guides="1" tooltips="1" connect="1" arrows="1" fold="1" page="1" pageScale="1" pageWidth="827" pageHeight="1169" math="0" shadow="0">
      <root>
        <mxCell id="0" />
        <mxCell id="1" parent="0" />
        <mxCell id="Rg_IubqubE7bZwcEnkzU-1" value="" style="rounded=1;whiteSpace=wrap;html=1;" parent="1" vertex="1">
          <mxGeometry x="370" y="1520" width="52.5" height="40" as="geometry" />
        </mxCell>
        <mxCell id="Rg_IubqubE7bZwcEnkzU-2" value="Search Flights" style="rounded=1;whiteSpace=wrap;html=1;" parent="1" vertex="1">
          <mxGeometry x="337.5" y="920" width="110" height="40" as="geometry" />
        </mxCell>
        <mxCell id="Rg_IubqubE7bZwcEnkzU-3" value="Display Available Flights" style="rounded=1;whiteSpace=wrap;html=1;" parent="1" vertex="1">
          <mxGeometry x="320" y="980" width="145" height="40" as="geometry" />
        </mxCell>
        <mxCell id="Rg_IubqubE7bZwcEnkzU-4" value="User Login/Sign Up" style="rounded=1;whiteSpace=wrap;html=1;" parent="1" vertex="1">
          <mxGeometry x="337.5" y="860" width="110" height="40" as="geometry" />
        </mxCell>
        <mxCell id="Rg_IubqubE7bZwcEnkzU-5" value="Select Flight" style="rounded=1;whiteSpace=wrap;html=1;" parent="1" vertex="1">
          <mxGeometry x="332.5" y="1040" width="120" height="40" as="geometry" />
        </mxCell>
        <mxCell id="Rg_IubqubE7bZwcEnkzU-6" value="Make Booking , Enter Passenger Details" style="rounded=1;whiteSpace=wrap;html=1;" parent="1" vertex="1">
          <mxGeometry x="327.5" y="1230" width="120" height="40" as="geometry" />
        </mxCell>
        <mxCell id="Rg_IubqubE7bZwcEnkzU-7" value="Send Email Confirmation" style="rounded=1;whiteSpace=wrap;html=1;" parent="1" vertex="1">
          <mxGeometry x="337.5" y="1400" width="120" height="40" as="geometry" />
        </mxCell>
        <mxCell id="Rg_IubqubE7bZwcEnkzU-8" value="CheckIn" style="rounded=1;whiteSpace=wrap;html=1;" parent="1" vertex="1">
          <mxGeometry x="340" y="1460" width="120" height="30" as="geometry" />
        </mxCell>
        <mxCell id="Rg_IubqubE7bZwcEnkzU-9" value="Check SeatAvailability" style="rhombus;whiteSpace=wrap;html=1;" parent="1" vertex="1">
          <mxGeometry x="340" y="1110" width="90" height="90" as="geometry" />
        </mxCell>
        <mxCell id="Rg_IubqubE7bZwcEnkzU-10" value="" style="endArrow=classic;html=1;rounded=0;exitX=0.437;exitY=0.967;exitDx=0;exitDy=0;exitPerimeter=0;entryX=0.46;entryY=-0.009;entryDx=0;entryDy=0;entryPerimeter=0;" parent="1" source="Rg_IubqubE7bZwcEnkzU-4" target="Rg_IubqubE7bZwcEnkzU-2" edge="1">
          <mxGeometry width="50" height="50" relative="1" as="geometry">
            <mxPoint x="457.5" y="1050" as="sourcePoint" />
            <mxPoint x="507.5" y="1000" as="targetPoint" />
          </mxGeometry>
        </mxCell>
        <mxCell id="Rg_IubqubE7bZwcEnkzU-11" value="" style="endArrow=classic;html=1;rounded=0;exitX=0.5;exitY=1;exitDx=0;exitDy=0;entryX=0.5;entryY=0;entryDx=0;entryDy=0;" parent="1" source="Rg_IubqubE7bZwcEnkzU-2" target="Rg_IubqubE7bZwcEnkzU-3" edge="1">
          <mxGeometry width="50" height="50" relative="1" as="geometry">
            <mxPoint x="457.5" y="1100" as="sourcePoint" />
            <mxPoint x="507.5" y="1050" as="targetPoint" />
          </mxGeometry>
        </mxCell>
        <mxCell id="Rg_IubqubE7bZwcEnkzU-12" value="" style="endArrow=classic;html=1;rounded=0;exitX=0.5;exitY=1;exitDx=0;exitDy=0;entryX=0.5;entryY=0;entryDx=0;entryDy=0;" parent="1" source="Rg_IubqubE7bZwcEnkzU-3" target="Rg_IubqubE7bZwcEnkzU-5" edge="1">
          <mxGeometry width="50" height="50" relative="1" as="geometry">
            <mxPoint x="457.5" y="1140" as="sourcePoint" />
            <mxPoint x="507.5" y="1090" as="targetPoint" />
          </mxGeometry>
        </mxCell>
        <mxCell id="Rg_IubqubE7bZwcEnkzU-13" value="" style="endArrow=classic;html=1;rounded=0;exitX=0.417;exitY=1;exitDx=0;exitDy=0;exitPerimeter=0;" parent="1" source="Rg_IubqubE7bZwcEnkzU-5" target="Rg_IubqubE7bZwcEnkzU-9" edge="1">
          <mxGeometry width="50" height="50" relative="1" as="geometry">
            <mxPoint x="457.5" y="1260" as="sourcePoint" />
            <mxPoint x="507.5" y="1210" as="targetPoint" />
          </mxGeometry>
        </mxCell>
        <mxCell id="Rg_IubqubE7bZwcEnkzU-14" value="" style="endArrow=classic;html=1;rounded=0;exitX=0.5;exitY=1;exitDx=0;exitDy=0;entryX=0.465;entryY=-0.073;entryDx=0;entryDy=0;entryPerimeter=0;" parent="1" source="Rg_IubqubE7bZwcEnkzU-9" target="Rg_IubqubE7bZwcEnkzU-6" edge="1">
          <mxGeometry width="50" height="50" relative="1" as="geometry">
            <mxPoint x="457.5" y="1360" as="sourcePoint" />
            <mxPoint x="507.5" y="1310" as="targetPoint" />
          </mxGeometry>
        </mxCell>
        <mxCell id="Rg_IubqubE7bZwcEnkzU-15" value="Yes" style="text;html=1;align=center;verticalAlign=middle;whiteSpace=wrap;rounded=0;" parent="1" vertex="1">
          <mxGeometry x="377.5" y="1190" width="60" height="30" as="geometry" />
        </mxCell>
        <mxCell id="Rg_IubqubE7bZwcEnkzU-16" value="&lt;div&gt;Make &lt;br&gt;&lt;/div&gt;&lt;div&gt;Payment&lt;/div&gt;" style="rhombus;whiteSpace=wrap;html=1;" parent="1" vertex="1">
          <mxGeometry x="347.5" y="1290" width="80" height="80" as="geometry" />
        </mxCell>
        <mxCell id="Rg_IubqubE7bZwcEnkzU-17" value="" style="endArrow=classic;html=1;rounded=0;exitX=0.5;exitY=1;exitDx=0;exitDy=0;entryX=0.5;entryY=0;entryDx=0;entryDy=0;" parent="1" source="Rg_IubqubE7bZwcEnkzU-6" target="Rg_IubqubE7bZwcEnkzU-16" edge="1">
          <mxGeometry width="50" height="50" relative="1" as="geometry">
            <mxPoint x="457.5" y="1520" as="sourcePoint" />
            <mxPoint x="507.5" y="1470" as="targetPoint" />
          </mxGeometry>
        </mxCell>
        <mxCell id="Rg_IubqubE7bZwcEnkzU-18" value="Success" style="text;html=1;align=center;verticalAlign=middle;whiteSpace=wrap;rounded=0;" parent="1" vertex="1">
          <mxGeometry x="382.5" y="1360" width="60" height="30" as="geometry" />
        </mxCell>
        <mxCell id="Rg_IubqubE7bZwcEnkzU-19" value="" style="endArrow=classic;html=1;rounded=0;exitX=0.5;exitY=1;exitDx=0;exitDy=0;entryX=0.388;entryY=-0.041;entryDx=0;entryDy=0;entryPerimeter=0;" parent="1" source="Rg_IubqubE7bZwcEnkzU-16" target="Rg_IubqubE7bZwcEnkzU-7" edge="1">
          <mxGeometry width="50" height="50" relative="1" as="geometry">
            <mxPoint x="457.5" y="1620" as="sourcePoint" />
            <mxPoint x="507.5" y="1570" as="targetPoint" />
          </mxGeometry>
        </mxCell>
        <mxCell id="Rg_IubqubE7bZwcEnkzU-20" value="" style="endArrow=classic;html=1;rounded=0;exitX=0.544;exitY=1.023;exitDx=0;exitDy=0;exitPerimeter=0;entryX=0.555;entryY=0.096;entryDx=0;entryDy=0;entryPerimeter=0;" parent="1" source="Rg_IubqubE7bZwcEnkzU-7" target="Rg_IubqubE7bZwcEnkzU-8" edge="1">
          <mxGeometry width="50" height="50" relative="1" as="geometry">
            <mxPoint x="457.5" y="1650.0000000000002" as="sourcePoint" />
            <mxPoint x="507.5" y="1600" as="targetPoint" />
          </mxGeometry>
        </mxCell>
        <mxCell id="Rg_IubqubE7bZwcEnkzU-21" value="End" style="text;html=1;align=center;verticalAlign=middle;whiteSpace=wrap;rounded=0;" parent="1" vertex="1">
          <mxGeometry x="362.5" y="1520" width="60" height="30" as="geometry" />
        </mxCell>
        <mxCell id="Rg_IubqubE7bZwcEnkzU-22" value="" style="endArrow=classic;html=1;rounded=0;exitX=0.447;exitY=1.085;exitDx=0;exitDy=0;exitPerimeter=0;entryX=0.5;entryY=0;entryDx=0;entryDy=0;" parent="1" source="Rg_IubqubE7bZwcEnkzU-8" target="Rg_IubqubE7bZwcEnkzU-21" edge="1">
          <mxGeometry width="50" height="50" relative="1" as="geometry">
            <mxPoint x="457.5" y="1740.0000000000002" as="sourcePoint" />
            <mxPoint x="507.5" y="1690.0000000000002" as="targetPoint" />
          </mxGeometry>
        </mxCell>
        <mxCell id="Rg_IubqubE7bZwcEnkzU-23" value="" style="endArrow=classic;html=1;rounded=0;exitX=1;exitY=0.5;exitDx=0;exitDy=0;entryX=1;entryY=0;entryDx=0;entryDy=0;" parent="1" edge="1">
          <mxGeometry width="50" height="50" relative="1" as="geometry">
            <mxPoint x="430" y="1165" as="sourcePoint" />
            <mxPoint x="422.5" y="1530" as="targetPoint" />
            <Array as="points">
              <mxPoint x="607.5" y="1160" />
              <mxPoint x="607.5" y="1530" />
              <mxPoint x="510" y="1530" />
            </Array>
          </mxGeometry>
        </mxCell>
        <mxCell id="Rg_IubqubE7bZwcEnkzU-24" value="No" style="text;html=1;align=center;verticalAlign=middle;whiteSpace=wrap;rounded=0;" parent="1" vertex="1">
          <mxGeometry x="412.5" y="1130" width="60" height="30" as="geometry" />
        </mxCell>
        <mxCell id="Rg_IubqubE7bZwcEnkzU-25" value="" style="endArrow=classic;html=1;rounded=0;exitX=1;exitY=0.5;exitDx=0;exitDy=0;" parent="1" edge="1">
          <mxGeometry width="50" height="50" relative="1" as="geometry">
            <mxPoint x="427.5" y="1340" as="sourcePoint" />
            <mxPoint x="422.5" y="1545" as="targetPoint" />
            <Array as="points">
              <mxPoint x="547.5" y="1340" />
              <mxPoint x="547.5" y="1545" />
              <mxPoint x="490" y="1545" />
            </Array>
          </mxGeometry>
        </mxCell>
        <mxCell id="Rg_IubqubE7bZwcEnkzU-26" value="Failure" style="text;html=1;align=center;verticalAlign=middle;whiteSpace=wrap;rounded=0;" parent="1" vertex="1">
          <mxGeometry x="412.5" y="1290" width="60" height="30" as="geometry" />
        </mxCell>
        <mxCell id="Rg_IubqubE7bZwcEnkzU-27" value="" style="whiteSpace=wrap;html=1;aspect=fixed;" parent="1" vertex="1">
          <mxGeometry x="757.5" y="660" width="740" height="740" as="geometry" />
        </mxCell>
        <mxCell id="Rg_IubqubE7bZwcEnkzU-28" value="" style="whiteSpace=wrap;html=1;aspect=fixed;" parent="1" vertex="1">
          <mxGeometry x="1227.5" y="700" width="100" height="100" as="geometry" />
        </mxCell>
        <mxCell id="Rg_IubqubE7bZwcEnkzU-29" value="" style="whiteSpace=wrap;html=1;aspect=fixed;" parent="1" vertex="1">
          <mxGeometry x="1227.5" y="840" width="100" height="100" as="geometry" />
        </mxCell>
        <mxCell id="Rg_IubqubE7bZwcEnkzU-30" value="" style="whiteSpace=wrap;html=1;aspect=fixed;" parent="1" vertex="1">
          <mxGeometry x="1227.5" y="970" width="100" height="100" as="geometry" />
        </mxCell>
        <mxCell id="Rg_IubqubE7bZwcEnkzU-31" value="" style="whiteSpace=wrap;html=1;aspect=fixed;" parent="1" vertex="1">
          <mxGeometry x="1227.5" y="1120" width="100" height="100" as="geometry" />
        </mxCell>
        <mxCell id="Rg_IubqubE7bZwcEnkzU-32" value="" style="whiteSpace=wrap;html=1;aspect=fixed;" parent="1" vertex="1">
          <mxGeometry x="1227.5" y="1260" width="100" height="100" as="geometry" />
        </mxCell>
        <mxCell id="Rg_IubqubE7bZwcEnkzU-33" value="&lt;div&gt;User&lt;/div&gt;&lt;div&gt;Microservice&lt;/div&gt;" style="text;html=1;align=center;verticalAlign=middle;whiteSpace=wrap;rounded=0;" parent="1" vertex="1">
          <mxGeometry x="1247.5" y="720" width="60" height="30" as="geometry" />
        </mxCell>
        <mxCell id="Rg_IubqubE7bZwcEnkzU-34" value="Port No: 1000" style="text;html=1;align=center;verticalAlign=middle;whiteSpace=wrap;rounded=0;" parent="1" vertex="1">
          <mxGeometry x="1247.5" y="760" width="60" height="30" as="geometry" />
        </mxCell>
        <mxCell id="Rg_IubqubE7bZwcEnkzU-35" value="&lt;div&gt;Flight&lt;/div&gt;&lt;div&gt;Microservice&lt;/div&gt;&lt;div&gt;&lt;br&gt;&lt;/div&gt;&lt;div&gt;Port No:&lt;/div&gt;&lt;div&gt;1001&lt;/div&gt;" style="text;html=1;align=center;verticalAlign=middle;whiteSpace=wrap;rounded=0;" parent="1" vertex="1">
          <mxGeometry x="1247.5" y="870" width="60" height="40" as="geometry" />
        </mxCell>
        <mxCell id="Rg_IubqubE7bZwcEnkzU-36" value="&lt;div&gt;Booking&lt;/div&gt;&lt;div&gt;Microservice&lt;/div&gt;&lt;div&gt;&lt;br&gt;&lt;/div&gt;&lt;div&gt;Port No:&lt;/div&gt;&lt;div&gt;1002&lt;/div&gt;" style="text;html=1;align=center;verticalAlign=middle;whiteSpace=wrap;rounded=0;" parent="1" vertex="1">
          <mxGeometry x="1247.5" y="1000" width="60" height="30" as="geometry" />
        </mxCell>
        <mxCell id="Rg_IubqubE7bZwcEnkzU-37" value="&lt;div&gt;CheckIn &lt;br&gt;&lt;/div&gt;&lt;div&gt;Microservice&lt;/div&gt;&lt;div&gt;&lt;br&gt;&lt;/div&gt;&lt;div&gt;Port No:&lt;/div&gt;&lt;div&gt;1003&lt;/div&gt;" style="text;html=1;align=center;verticalAlign=middle;whiteSpace=wrap;rounded=0;" parent="1" vertex="1">
          <mxGeometry x="1247.5" y="1150" width="60" height="30" as="geometry" />
        </mxCell>
        <mxCell id="Rg_IubqubE7bZwcEnkzU-38" value="&lt;div&gt;Payment&lt;/div&gt;&lt;div&gt;Microservice&lt;/div&gt;&lt;div&gt;&lt;br&gt;&lt;/div&gt;&lt;div&gt;Port No:&lt;/div&gt;&lt;div&gt;1004&lt;/div&gt;" style="text;html=1;align=center;verticalAlign=middle;whiteSpace=wrap;rounded=0;" parent="1" vertex="1">
          <mxGeometry x="1247.5" y="1290" width="60" height="30" as="geometry" />
        </mxCell>
        <mxCell id="Rg_IubqubE7bZwcEnkzU-39" value="" style="endArrow=classic;html=1;rounded=0;exitX=1;exitY=0.5;exitDx=0;exitDy=0;entryX=1;entryY=0.5;entryDx=0;entryDy=0;" parent="1" source="Rg_IubqubE7bZwcEnkzU-29" target="Rg_IubqubE7bZwcEnkzU-28" edge="1">
          <mxGeometry width="50" height="50" relative="1" as="geometry">
            <mxPoint x="1097.5" y="1030" as="sourcePoint" />
            <mxPoint x="1147.5" y="980" as="targetPoint" />
            <Array as="points">
              <mxPoint x="1417.5" y="850" />
            </Array>
          </mxGeometry>
        </mxCell>
        <mxCell id="Rg_IubqubE7bZwcEnkzU-40" value="" style="endArrow=classic;html=1;rounded=0;exitX=0.962;exitY=0.572;exitDx=0;exitDy=0;exitPerimeter=0;entryX=1.01;entryY=0.594;entryDx=0;entryDy=0;entryPerimeter=0;" parent="1" source="Rg_IubqubE7bZwcEnkzU-32" target="Rg_IubqubE7bZwcEnkzU-30" edge="1">
          <mxGeometry width="50" height="50" relative="1" as="geometry">
            <mxPoint x="1097.5" y="1050" as="sourcePoint" />
            <mxPoint x="1147.5" y="1000" as="targetPoint" />
            <Array as="points">
              <mxPoint x="1437.5" y="1200" />
            </Array>
          </mxGeometry>
        </mxCell>
        <mxCell id="Rg_IubqubE7bZwcEnkzU-41" value="" style="endArrow=classic;html=1;rounded=0;entryX=1;entryY=0.5;entryDx=0;entryDy=0;exitX=1;exitY=0.5;exitDx=0;exitDy=0;" parent="1" source="Rg_IubqubE7bZwcEnkzU-29" target="Rg_IubqubE7bZwcEnkzU-30" edge="1">
          <mxGeometry width="50" height="50" relative="1" as="geometry">
            <mxPoint x="1097.5" y="1050" as="sourcePoint" />
            <mxPoint x="1147.5" y="1000" as="targetPoint" />
            <Array as="points">
              <mxPoint x="1407.5" y="940" />
            </Array>
          </mxGeometry>
        </mxCell>
        <mxCell id="Rg_IubqubE7bZwcEnkzU-42" value="" style="endArrow=classic;html=1;rounded=0;exitX=1;exitY=0.85;exitDx=0;exitDy=0;exitPerimeter=0;" parent="1" source="Rg_IubqubE7bZwcEnkzU-30" edge="1">
          <mxGeometry width="50" height="50" relative="1" as="geometry">
            <mxPoint x="1127.5" y="1050" as="sourcePoint" />
            <mxPoint x="1327.5" y="900" as="targetPoint" />
            <Array as="points">
              <mxPoint x="1407.5" y="1010" />
            </Array>
          </mxGeometry>
        </mxCell>
        <mxCell id="Rg_IubqubE7bZwcEnkzU-43" value="" style="endArrow=classic;html=1;rounded=0;exitX=0.99;exitY=0.35;exitDx=0;exitDy=0;exitPerimeter=0;entryX=1;entryY=0.75;entryDx=0;entryDy=0;" parent="1" source="Rg_IubqubE7bZwcEnkzU-30" target="Rg_IubqubE7bZwcEnkzU-28" edge="1">
          <mxGeometry width="50" height="50" relative="1" as="geometry">
            <mxPoint x="1127.5" y="940" as="sourcePoint" />
            <mxPoint x="1177.5" y="890" as="targetPoint" />
            <Array as="points">
              <mxPoint x="1437.5" y="970" />
            </Array>
          </mxGeometry>
        </mxCell>
        <mxCell id="Rg_IubqubE7bZwcEnkzU-44" value="" style="endArrow=classic;html=1;rounded=0;exitX=1.014;exitY=0.572;exitDx=0;exitDy=0;exitPerimeter=0;entryX=1;entryY=0.5;entryDx=0;entryDy=0;" parent="1" source="Rg_IubqubE7bZwcEnkzU-31" target="Rg_IubqubE7bZwcEnkzU-30" edge="1">
          <mxGeometry width="50" height="50" relative="1" as="geometry">
            <mxPoint x="1127.5" y="1080" as="sourcePoint" />
            <mxPoint x="1177.5" y="1030" as="targetPoint" />
            <Array as="points">
              <mxPoint x="1447.5" y="1120" />
            </Array>
          </mxGeometry>
        </mxCell>
        <mxCell id="Rg_IubqubE7bZwcEnkzU-45" value="" style="rounded=0;whiteSpace=wrap;html=1;direction=south;" parent="1" vertex="1">
          <mxGeometry x="847.5" y="730" width="120" height="490" as="geometry" />
        </mxCell>
        <mxCell id="Rg_IubqubE7bZwcEnkzU-46" value="&lt;div&gt;&lt;font style=&quot;font-size: 18px;&quot;&gt;API&lt;/font&gt;&lt;/div&gt;&lt;div&gt;&lt;font style=&quot;font-size: 18px;&quot;&gt;GATEWAY&lt;/font&gt;&lt;/div&gt;" style="text;html=1;align=center;verticalAlign=middle;whiteSpace=wrap;rounded=0;" parent="1" vertex="1">
          <mxGeometry x="877.5" y="980" width="60" height="30" as="geometry" />
        </mxCell>
        <mxCell id="Rg_IubqubE7bZwcEnkzU-47" value="&lt;font style=&quot;font-size: 15px;&quot;&gt;Localhost :&lt;br&gt;8080&lt;/font&gt;" style="text;html=1;align=center;verticalAlign=middle;whiteSpace=wrap;rounded=0;" parent="1" vertex="1">
          <mxGeometry x="867.5" y="850" width="80" height="30" as="geometry" />
        </mxCell>
        <mxCell id="Rg_IubqubE7bZwcEnkzU-49" value="&lt;font style=&quot;font-size: 15px;&quot;&gt;Eureka Server Port No : 2003&lt;/font&gt;" style="text;html=1;align=center;verticalAlign=middle;whiteSpace=wrap;rounded=0;" parent="1" vertex="1">
          <mxGeometry x="867.5" y="1310" width="120" height="30" as="geometry" />
        </mxCell>
        <mxCell id="Rg_IubqubE7bZwcEnkzU-50" value="" style="endArrow=classic;html=1;rounded=0;exitX=0.5;exitY=0;exitDx=0;exitDy=0;entryX=-0.036;entryY=0.581;entryDx=0;entryDy=0;entryPerimeter=0;" parent="1" source="Rg_IubqubE7bZwcEnkzU-45" target="Rg_IubqubE7bZwcEnkzU-28" edge="1">
          <mxGeometry width="50" height="50" relative="1" as="geometry">
            <mxPoint x="1057.5" y="990" as="sourcePoint" />
            <mxPoint x="1107.5" y="940" as="targetPoint" />
          </mxGeometry>
        </mxCell>
        <mxCell id="Rg_IubqubE7bZwcEnkzU-51" value="" style="endArrow=classic;html=1;rounded=0;exitX=0.547;exitY=0.036;exitDx=0;exitDy=0;exitPerimeter=0;entryX=0.02;entryY=0.592;entryDx=0;entryDy=0;entryPerimeter=0;" parent="1" source="Rg_IubqubE7bZwcEnkzU-45" target="Rg_IubqubE7bZwcEnkzU-29" edge="1">
          <mxGeometry width="50" height="50" relative="1" as="geometry">
            <mxPoint x="1057.5" y="990" as="sourcePoint" />
            <mxPoint x="1107.5" y="940" as="targetPoint" />
          </mxGeometry>
        </mxCell>
        <mxCell id="Rg_IubqubE7bZwcEnkzU-52" value="" style="endArrow=classic;html=1;rounded=0;exitX=0.609;exitY=0.028;exitDx=0;exitDy=0;exitPerimeter=0;entryX=0.635;entryY=0.486;entryDx=0;entryDy=0;entryPerimeter=0;" parent="1" source="Rg_IubqubE7bZwcEnkzU-45" target="Rg_IubqubE7bZwcEnkzU-27" edge="1">
          <mxGeometry width="50" height="50" relative="1" as="geometry">
            <mxPoint x="1057.5" y="990" as="sourcePoint" />
            <mxPoint x="1107.5" y="940" as="targetPoint" />
          </mxGeometry>
        </mxCell>
        <mxCell id="Rg_IubqubE7bZwcEnkzU-53" value="" style="endArrow=classic;html=1;rounded=0;exitX=0.671;exitY=0.013;exitDx=0;exitDy=0;exitPerimeter=0;entryX=0.635;entryY=0.676;entryDx=0;entryDy=0;entryPerimeter=0;" parent="1" source="Rg_IubqubE7bZwcEnkzU-45" target="Rg_IubqubE7bZwcEnkzU-27" edge="1">
          <mxGeometry width="50" height="50" relative="1" as="geometry">
            <mxPoint x="1057.5" y="1060" as="sourcePoint" />
            <mxPoint x="1107.5" y="1010" as="targetPoint" />
          </mxGeometry>
        </mxCell>
        <mxCell id="Rg_IubqubE7bZwcEnkzU-54" value="" style="endArrow=classic;html=1;rounded=0;exitX=0.75;exitY=0;exitDx=0;exitDy=0;entryX=0;entryY=0.5;entryDx=0;entryDy=0;" parent="1" source="Rg_IubqubE7bZwcEnkzU-45" target="Rg_IubqubE7bZwcEnkzU-32" edge="1">
          <mxGeometry width="50" height="50" relative="1" as="geometry">
            <mxPoint x="1057.5" y="1060" as="sourcePoint" />
            <mxPoint x="1107.5" y="1010" as="targetPoint" />
          </mxGeometry>
        </mxCell>
        <mxCell id="Rg_IubqubE7bZwcEnkzU-55" value="&lt;font style=&quot;font-size: 20px;&quot;&gt;Client&lt;/font&gt;" style="ellipse;whiteSpace=wrap;html=1;aspect=fixed;" parent="1" vertex="1">
          <mxGeometry x="577.5" y="980" width="80" height="80" as="geometry" />
        </mxCell>
        <mxCell id="Rg_IubqubE7bZwcEnkzU-56" value="" style="endArrow=classic;html=1;rounded=0;exitX=1;exitY=0.5;exitDx=0;exitDy=0;" parent="1" source="Rg_IubqubE7bZwcEnkzU-55" edge="1">
          <mxGeometry width="50" height="50" relative="1" as="geometry">
            <mxPoint x="947.5" y="1070" as="sourcePoint" />
            <mxPoint x="847.5" y="1020" as="targetPoint" />
          </mxGeometry>
        </mxCell>
        <mxCell id="Rg_IubqubE7bZwcEnkzU-57" value="" style="shape=cylinder3;whiteSpace=wrap;html=1;boundedLbl=1;backgroundOutline=1;size=15;" parent="1" vertex="1">
          <mxGeometry x="1577.5" y="700" width="60" height="80" as="geometry" />
        </mxCell>
        <mxCell id="Rg_IubqubE7bZwcEnkzU-58" value="" style="shape=cylinder3;whiteSpace=wrap;html=1;boundedLbl=1;backgroundOutline=1;size=15;" parent="1" vertex="1">
          <mxGeometry x="1577.5" y="830" width="60" height="80" as="geometry" />
        </mxCell>
        <mxCell id="Rg_IubqubE7bZwcEnkzU-59" value="&#xa;MySQL&#xa;&#xa;" style="shape=cylinder3;whiteSpace=wrap;html=1;boundedLbl=1;backgroundOutline=1;size=15;" parent="1" vertex="1">
          <mxGeometry x="1577.5" y="970" width="60" height="80" as="geometry" />
        </mxCell>
        <mxCell id="Rg_IubqubE7bZwcEnkzU-60" value="&#xa;MySQL&#xa;&#xa;" style="shape=cylinder3;whiteSpace=wrap;html=1;boundedLbl=1;backgroundOutline=1;size=15;" parent="1" vertex="1">
          <mxGeometry x="1577.5" y="1120" width="60" height="80" as="geometry" />
        </mxCell>
        <mxCell id="Rg_IubqubE7bZwcEnkzU-61" value="&#xa;MySQL&#xa;&#xa;" style="shape=cylinder3;whiteSpace=wrap;html=1;boundedLbl=1;backgroundOutline=1;size=15;" parent="1" vertex="1">
          <mxGeometry x="1577.5" y="1260" width="60" height="80" as="geometry" />
        </mxCell>
        <mxCell id="Rg_IubqubE7bZwcEnkzU-62" value="" style="endArrow=classic;html=1;rounded=0;exitX=1;exitY=0.4;exitDx=0;exitDy=0;exitPerimeter=0;entryX=0;entryY=0.5;entryDx=0;entryDy=0;entryPerimeter=0;" parent="1" source="Rg_IubqubE7bZwcEnkzU-28" target="Rg_IubqubE7bZwcEnkzU-57" edge="1">
          <mxGeometry width="50" height="50" relative="1" as="geometry">
            <mxPoint x="1407.5" y="980" as="sourcePoint" />
            <mxPoint x="1457.5" y="930" as="targetPoint" />
          </mxGeometry>
        </mxCell>
        <mxCell id="Rg_IubqubE7bZwcEnkzU-63" value="" style="endArrow=classic;html=1;rounded=0;exitX=1;exitY=0.4;exitDx=0;exitDy=0;exitPerimeter=0;" parent="1" source="Rg_IubqubE7bZwcEnkzU-29" edge="1">
          <mxGeometry width="50" height="50" relative="1" as="geometry">
            <mxPoint x="1407.5" y="980" as="sourcePoint" />
            <mxPoint x="1577.5" y="880" as="targetPoint" />
          </mxGeometry>
        </mxCell>
        <mxCell id="Rg_IubqubE7bZwcEnkzU-64" value="" style="endArrow=classic;html=1;rounded=0;entryX=0;entryY=0;entryDx=0;entryDy=27.5;entryPerimeter=0;" parent="1" target="Rg_IubqubE7bZwcEnkzU-59" edge="1">
          <mxGeometry width="50" height="50" relative="1" as="geometry">
            <mxPoint x="1327.5" y="1000" as="sourcePoint" />
            <mxPoint x="1457.5" y="940" as="targetPoint" />
          </mxGeometry>
        </mxCell>
        <mxCell id="Rg_IubqubE7bZwcEnkzU-65" value="" style="endArrow=classic;html=1;rounded=0;exitX=1;exitY=0.5;exitDx=0;exitDy=0;entryX=0;entryY=0;entryDx=0;entryDy=52.5;entryPerimeter=0;" parent="1" source="Rg_IubqubE7bZwcEnkzU-31" target="Rg_IubqubE7bZwcEnkzU-60" edge="1">
          <mxGeometry width="50" height="50" relative="1" as="geometry">
            <mxPoint x="1407.5" y="1150" as="sourcePoint" />
            <mxPoint x="1457.5" y="1100" as="targetPoint" />
          </mxGeometry>
        </mxCell>
        <mxCell id="Rg_IubqubE7bZwcEnkzU-66" value="" style="endArrow=classic;html=1;rounded=0;exitX=1;exitY=0.5;exitDx=0;exitDy=0;entryX=0;entryY=0;entryDx=0;entryDy=52.5;entryPerimeter=0;" parent="1" source="Rg_IubqubE7bZwcEnkzU-32" target="Rg_IubqubE7bZwcEnkzU-61" edge="1">
          <mxGeometry width="50" height="50" relative="1" as="geometry">
            <mxPoint x="1407.5" y="1100" as="sourcePoint" />
            <mxPoint x="1457.5" y="1050" as="targetPoint" />
          </mxGeometry>
        </mxCell>
        <mxCell id="Rg_IubqubE7bZwcEnkzU-67" value="MySQL" style="text;html=1;align=center;verticalAlign=middle;whiteSpace=wrap;rounded=0;" parent="1" vertex="1">
          <mxGeometry x="1577.5" y="740" width="60" height="30" as="geometry" />
        </mxCell>
        <mxCell id="Rg_IubqubE7bZwcEnkzU-68" value="MySQL" style="text;html=1;align=center;verticalAlign=middle;whiteSpace=wrap;rounded=0;" parent="1" vertex="1">
          <mxGeometry x="1577.5" y="870" width="60" height="30" as="geometry" />
        </mxCell>
      </root>
    </mxGraphModel>
  </diagram>
</mxfile>
